<svg width="188" height="215" viewBox="0 0 188 215" fill="none" xmlns="http://www.w3.org/2000/svg">
<g clip-path="url(#clip0_12_1349)">
<g opacity="0.2">
<path opacity="0.2" d="M104.132 215C150 215 187.183 209.239 187.183 202.133C187.183 195.027 150 189.266 104.132 189.266C58.2646 189.266 21.0815 195.027 21.0815 202.133C21.0815 209.239 58.2646 215 104.132 215Z" fill="#00AAFF"/>
</g>
<path d="M181.199 180.969C181.199 192.161 174.615 201.232 166.492 201.232C162.94 201.232 159.679 199.493 157.133 196.595C153.869 192.881 151.786 187.259 151.786 180.969C151.786 174.679 153.869 169.058 157.133 165.338C157.763 164.619 158.436 163.973 159.147 163.405C161.308 161.686 163.819 160.701 166.492 160.701C173.612 160.701 179.551 167.676 180.907 176.938C181.097 178.242 181.199 179.587 181.199 180.968V180.969Z" fill="#C2C6D2"/>
<path d="M173.943 177.527C175.842 177.527 177.381 175.729 177.381 173.512C177.381 171.295 175.842 169.497 173.943 169.497C172.044 169.497 170.505 171.295 170.505 173.512C170.505 175.729 172.044 177.527 173.943 177.527Z" fill="#EEF8FF"/>
<path d="M167.258 196.197C170.95 196.197 173.943 192.703 173.943 188.391C173.943 184.08 170.95 180.585 167.258 180.585C163.567 180.585 160.574 184.08 160.574 188.391C160.574 192.703 163.567 196.197 167.258 196.197Z" fill="#EEF8FF"/>
<path d="M166.495 202.788C157.528 202.788 150.234 192.999 150.234 180.967C150.234 168.934 157.528 159.147 166.495 159.147C175.462 159.147 182.756 168.936 182.756 180.967C182.756 192.998 175.462 202.788 166.495 202.788V202.788ZM166.495 162.259C159.245 162.259 153.343 170.652 153.343 180.967C153.343 191.282 159.244 199.676 166.495 199.676C173.746 199.676 179.647 191.283 179.647 180.967C179.647 170.65 173.746 162.259 166.495 162.259V162.259Z" fill="#252728"/>
<path d="M173.945 179.083C171.192 179.083 168.952 176.584 168.952 173.51C168.952 170.437 171.192 167.94 173.945 167.94C176.697 167.94 178.934 170.439 178.934 173.51C178.934 176.582 176.697 179.083 173.945 179.083ZM173.945 171.052C172.922 171.052 172.061 172.179 172.061 173.51C172.061 174.842 172.922 175.971 173.945 175.971C174.967 175.971 175.825 174.844 175.825 173.51C175.825 172.177 174.964 171.052 173.945 171.052Z" fill="#252728"/>
<path d="M167.258 197.753C162.716 197.753 159.019 193.554 159.019 188.391C159.019 183.229 162.716 179.029 167.258 179.029C171.801 179.029 175.498 183.229 175.498 188.391C175.498 193.554 171.801 197.753 167.258 197.753ZM167.258 182.141C164.429 182.141 162.128 184.944 162.128 188.391C162.128 191.837 164.429 194.641 167.258 194.641C170.088 194.641 172.389 191.837 172.389 188.391C172.389 184.944 170.088 182.141 167.258 182.141Z" fill="#252728"/>
<path d="M176.617 130.88C176.143 132.389 175.552 133.704 174.88 134.848C173.286 137.578 171.219 139.345 169.062 140.469C169.055 140.473 169.05 140.473 169.05 140.473C163.395 143.414 157.135 141.967 157.135 141.967V201.232H113.206C103.276 210.024 86.4669 205.819 86.4669 205.819C56.2924 207.348 48.6514 175.616 53.6188 150.763C55.4958 141.372 59.0596 131.764 64.3412 123.443C73.0275 109.738 86.358 99.5271 104.422 99.5271C128.868 99.5271 142.618 122.471 142.618 122.471C145.618 118.444 148.883 115.733 152.175 114.087V114.083C166.05 107.135 180.321 119.137 176.617 130.881V130.88Z" fill="#C2C6D2"/>
<g opacity="0.2">
<path opacity="0.2" d="M180.907 176.938C178.933 179.117 176.096 180.976 172.034 181.731C164.689 183.097 160.969 172.481 159.147 163.405C157.849 156.932 157.515 151.245 157.515 151.245L157.133 141.967C157.133 141.967 169.069 142.897 174.879 134.848C174.879 134.848 162.265 130.137 153.428 129.801C148.732 129.623 144.529 126.847 142.647 122.538L142.617 122.469C142.617 122.469 128.867 99.5257 104.421 99.5257C86.3569 99.5257 73.0264 109.737 64.3401 123.442C64.3401 123.442 70.7256 134.431 90.873 134.12C92.5053 134.096 94.2273 133.995 96.0423 133.809C96.3572 133.778 96.6679 133.742 96.987 133.707C96.987 133.707 100.691 139.437 113.205 143.495C125.723 147.556 125.813 153.177 125.813 153.177C125.813 153.177 125.79 153.714 125.619 154.586V154.59C124.923 158.095 121.83 166.949 108.13 167.575C101.495 167.874 90.1081 160.432 83.5559 151.244C81.1889 147.922 79.3815 145.324 77.8153 143.456C75.0522 140.157 73.0388 139.142 70.0076 140.472C65.2621 142.554 72.5068 149.556 70.0076 155.433C67.5084 161.311 55.3927 163.69 53.8513 174.849C52.2175 186.673 63.9308 207.824 86.4671 205.818C86.4671 205.818 103.276 210.023 113.206 201.232H157.135V196.595C159.68 199.493 162.942 201.232 166.494 201.232C174.616 201.232 181.2 192.16 181.2 180.968C181.2 179.587 181.099 178.241 180.909 176.938H180.907ZM71.2562 180.967C61.1539 179.705 61.887 171.83 63.5022 167.574C64.8927 163.908 69.2214 161.41 74.7683 160.479C81.0608 159.424 84.9505 163.653 84.9505 167.575C84.9505 171.497 81.0601 182.192 71.2562 180.967Z" fill="#39005E"/>
</g>
<path d="M95.7661 208.398C91.0454 208.398 87.3045 207.613 86.3219 207.384C75.6594 207.866 67.0296 204.429 60.7447 197.138C49.9851 184.656 49.2209 164.839 52.0943 150.457C56.9294 126.245 73.5329 97.9718 104.423 97.9718C125.586 97.9718 138.798 114.206 142.735 119.818C145.376 116.671 148.31 114.28 151.479 112.696C160.173 108.343 168.241 111.03 172.894 115.004C177.928 119.303 179.923 125.567 178.1 131.347C176.559 136.238 173.759 139.771 169.783 141.848C169.752 141.864 169.719 141.879 169.688 141.893C165.516 144.03 161.118 144.011 158.689 143.773V201.232C158.689 202.091 157.993 202.788 157.135 202.788H113.783C108.393 207.286 101.385 208.399 95.7661 208.399V208.398ZM86.4666 204.264C86.5913 204.264 86.7188 204.279 86.8435 204.31C87.0047 204.352 102.983 208.204 112.179 200.067C112.461 199.814 112.828 199.676 113.208 199.676H155.581V141.968C155.581 141.495 155.796 141.048 156.167 140.752C156.54 140.457 157.021 140.348 157.482 140.45C157.533 140.462 163.276 141.718 168.333 139.092C168.41 139.051 168.491 139.018 168.575 138.991C171.567 137.405 173.851 134.487 175.133 130.412C176.577 125.843 174.945 120.846 170.877 117.372C166.984 114.043 160.211 111.799 152.87 115.475C149.586 117.122 146.558 119.789 143.866 123.399C143.557 123.816 143.089 124.025 142.544 124.024C142.026 123.998 141.555 123.716 141.289 123.271C141.155 123.049 127.676 101.085 104.424 101.085C75.4182 101.085 59.7497 128.012 55.1434 151.068C51.7119 168.235 54.8374 185.522 63.1006 195.106C68.7702 201.683 76.5958 204.783 86.3901 204.268C86.4135 204.266 86.4404 204.266 86.4673 204.266L86.4666 204.264Z" fill="#252728"/>
<path d="M81.0606 97.1338C76.424 107.812 67.8583 116.172 56.5991 119.552C34.7925 126.103 11.1392 111.496 3.77038 86.9228C0.610358 76.3849 0.956265 65.7221 4.10871 56.4671C8.30231 44.1394 17.4585 34.3056 29.9146 30.5633C51.7212 24.0126 75.3745 38.6197 82.7433 63.193C86.3112 75.0814 85.4134 87.1249 81.0606 97.1338Z" fill="#C2C6D2"/>
<g opacity="0.2">
<path opacity="0.2" d="M15.601 85.1427C11.7939 81.8784 7.84427 70.8114 10.7948 59.2797C14.0017 46.7471 39.277 25.0195 62.3419 50.5205L15.601 85.1427Z" fill="#39005E"/>
</g>
<g opacity="0.2">
<path opacity="0.2" d="M81.0606 97.1338C76.424 107.812 67.8583 116.172 56.5991 119.552C34.7925 126.103 11.1392 111.496 3.77038 86.9228C0.610358 76.3849 0.956265 65.7221 4.10871 56.4671C4.10871 56.4671 -0.947603 94.395 29.4095 109.722C53.9524 122.116 74.2052 104.381 81.0606 97.1338Z" fill="#39005E"/>
</g>
<g opacity="0.6">
<path opacity="0.6" d="M84.8885 80.5583C84.69 76.4656 83.9865 72.2998 82.7434 68.1492C75.3746 43.5759 51.722 28.9681 29.9147 35.5195C13.2884 40.5136 2.53501 56.3691 1.6289 74.5165C0.642165 54.3662 11.7884 36.0127 29.9147 30.5627C51.7213 24.0119 75.3746 38.619 82.7434 63.1923C84.4964 69.0313 85.1689 74.9055 84.8885 80.5576V80.5583Z" fill="#EEF8FF"/>
</g>
<path d="M45.9904 122.667C26.9407 122.667 8.65376 108.617 2.27791 87.3691C-1.39271 75.1193 -0.608557 62.3206 4.48841 51.3302C9.61913 40.2778 18.488 32.3738 29.4668 29.075C40.4586 25.7748 52.2043 27.4852 62.5601 33.8822C72.8623 40.2453 80.5604 50.4984 84.2345 62.7468C91.8348 88.1022 79.6385 114.254 57.0456 121.043C53.3853 122.142 49.6741 122.668 45.9897 122.668L45.9904 122.667ZM40.604 30.5482C37.1553 30.5482 33.7203 31.0468 30.3625 32.0552C20.2451 35.0947 12.0591 42.4055 7.31217 52.6399C2.53424 62.9399 1.80452 74.9545 5.25946 86.4731C12.3719 110.186 35.2204 124.356 56.1512 118.062C77.1055 111.766 88.3667 87.3525 81.2543 63.642C77.8021 52.1213 70.5822 42.4931 60.9291 36.5306C54.5161 32.5717 47.5414 30.5482 40.604 30.5482V30.5482Z" fill="#252728"/>
<path d="M56.3078 109.722C55.8178 109.901 55.3203 110.064 54.8153 110.216C38.5893 115.094 21.0383 104.373 15.6085 86.2766C13.3932 78.8857 13.5407 71.4046 15.601 64.8111C18.5818 55.2608 25.5661 47.5665 35.1654 44.6836C51.3913 39.8094 68.9423 50.5267 74.3721 68.623C79.6303 86.1559 71.5738 104.183 56.3078 109.722V109.722Z" fill="#FF91BD"/>
<g opacity="0.2">
<path opacity="0.2" d="M56.3079 109.722C49.223 105.183 40.2218 97.4531 38.0258 86.5531C36.9453 81.1838 36.6442 76.069 36.7627 71.5073C37.0597 60.0659 22.2374 55.218 15.7265 64.6262C15.6431 64.7469 15.6011 64.8117 15.6011 64.8117C18.5819 55.2615 25.5662 47.5672 35.1655 44.6842C51.3914 39.8101 68.9424 50.5274 74.3722 68.6237C79.6304 86.1566 71.5739 104.183 56.3079 109.722V109.722Z" fill="#39005E"/>
</g>
<path d="M46.8483 112.945C32.5386 112.945 18.8553 102.522 14.118 86.7262C11.3859 77.605 12.0019 68.0644 15.8572 59.8604C19.7435 51.5992 26.4384 45.6788 34.7153 43.1938C51.7433 38.0783 70.1977 49.2873 75.8604 68.1754C78.5925 77.2967 77.9765 86.8373 74.1212 95.0413C70.2349 103.302 63.54 109.223 55.2631 111.708C52.4772 112.544 49.6479 112.945 46.8483 112.945ZM43.1405 45.0677C40.6302 45.0677 38.1034 45.425 35.6104 46.174C28.1913 48.4031 22.1759 53.7345 18.6734 61.1853C15.1406 68.6934 14.5824 77.4463 17.0989 85.8296C22.2668 103.076 39.002 113.347 54.368 108.726C61.7871 106.497 67.8025 101.166 71.305 93.715C74.8378 86.2069 75.3966 77.4539 72.8795 69.0706C68.5495 54.6214 56.1071 45.0677 43.1405 45.0677V45.0677Z" fill="#252728"/>
<path d="M174.806 63.6986C172.206 74.9717 165.423 84.382 155.245 89.0229C135.891 97.8456 111.589 86.0703 100.963 62.7219C91.9814 42.98 95.6541 21.2848 108.705 9.71993C111.087 7.60738 113.785 5.83003 116.773 4.46856C136.131 -4.35407 160.434 7.42116 171.055 30.773C176.092 41.8441 177.149 53.5296 174.806 63.6986V63.6986Z" fill="#C2C6D2"/>
<g opacity="0.2">
<path opacity="0.2" d="M175.401 63.6986C172.801 74.9717 166.019 84.382 155.841 89.023C136.487 97.8456 112.184 86.0703 101.559 62.722C92.5771 42.98 96.2498 21.2848 109.301 9.71993C111.127 11.7814 114.582 14.1699 120.195 12.6843C129.316 10.2648 140.27 9.56751 147.804 13.147C157.178 17.6004 169.704 28.6453 172.246 48.7142C173.043 55.0008 174.182 59.9101 175.402 63.6986H175.401Z" fill="#39005E"/>
</g>
<g opacity="0.6">
<path opacity="0.6" d="M175.832 57.0733C175.867 49.7211 174.281 41.9951 170.892 34.5457C160.266 11.1938 135.965 -0.581415 116.606 8.24122C104.504 13.7616 97.201 26.023 96.0234 40.1474C96.1206 24.4588 103.606 10.4738 116.773 4.46787C136.131 -4.35476 160.434 7.42048 171.055 30.7723C175.031 39.5053 176.527 48.6197 175.832 57.0733Z" fill="#EEF8FF"/>
</g>
<path d="M141.601 93.5253C135.831 93.5253 129.906 92.1259 124.153 89.3395C113.574 84.2123 104.837 74.9896 99.5477 63.3682C94.2619 51.7461 93.0444 39.0942 96.1258 27.7418C99.2349 16.2831 106.34 7.51703 116.131 3.05537C136.228 -6.10453 161.509 6.03763 172.471 30.1281H172.474C183.432 54.2207 175.993 81.2762 155.894 90.4417C151.375 92.499 146.544 93.5267 141.602 93.5267L141.601 93.5253ZM130.377 3.10296C125.946 3.10296 121.562 3.99681 117.416 5.88658C108.483 9.95788 101.99 18.0087 99.1267 28.5563C96.2333 39.2101 97.3903 51.115 102.377 62.0785C107.366 73.0419 115.579 81.7273 125.508 86.538C135.333 91.2996 145.672 91.6817 154.601 87.6091C173.147 79.1547 179.893 53.9476 169.641 31.4179C161.68 13.9209 145.769 3.10434 130.377 3.10434V3.10296Z" fill="#252728"/>
<path d="M168.028 60.5432C166.606 70.4631 161.133 78.9313 152.455 82.8881C137.597 89.6609 118.958 80.659 110.824 62.784C102.69 44.905 108.142 24.9257 123 18.1529C134.784 12.7808 148.946 17.328 158.359 28.3604C158.362 28.3632 158.363 28.3657 158.363 28.368C160.82 31.2427 162.949 34.5608 164.632 38.2569C168.014 45.6871 169.044 53.4827 168.03 60.5432H168.028Z" fill="#FF91BD"/>
<g opacity="0.2">
<path opacity="0.2" d="M168.028 60.5432C166.606 70.4631 161.133 78.9313 152.455 82.8881C137.597 89.6609 118.958 80.659 110.824 62.784C102.69 44.905 108.142 24.9257 123 18.1529C134.784 12.7808 148.946 17.328 158.359 28.3604C158.362 28.3632 158.363 28.3657 158.363 28.368V28.3722C158.268 28.2908 157.05 27.2673 154.459 26.8086C150.093 26.0368 146.881 30.8572 149.292 34.5815C151.343 37.75 153.202 42.3213 153.602 48.7135C154.193 58.1003 161.826 62.3716 168.029 60.5432H168.028Z" fill="#39005E"/>
</g>
<path d="M141.957 86.7111C137.483 86.7111 132.897 85.6317 128.442 83.4812C120.253 79.5258 113.494 72.4046 109.409 63.4282C105.324 54.4518 104.396 44.6739 106.791 35.8926C109.214 27.0107 114.742 20.2061 122.356 16.7356C137.964 9.62131 157.569 18.9819 166.044 37.6121H166.048C174.52 56.2422 168.712 77.1891 153.097 84.3047C149.578 85.911 145.81 86.7111 141.957 86.7111V86.7111ZM133.465 17.4584C130.108 17.4584 126.784 18.137 123.641 19.5682C116.885 22.6477 111.966 28.7384 109.789 36.7127C107.585 44.7932 108.456 53.8221 112.238 62.1385C116.023 70.4549 122.258 77.0387 129.795 80.679C137.227 84.2675 145.053 84.5503 151.809 81.4721C165.863 75.0669 170.98 55.9684 163.215 38.9011C157.186 25.6492 145.134 17.4577 133.465 17.4577V17.4584Z" fill="#252728"/>
<path d="M163.629 96.4683C161.992 100.922 158.837 105.12 154.592 108.909C134.06 127.259 88.0871 136.183 65.8409 119.408C36.4284 97.2352 40.6296 29.1777 87.232 15.0299C107.597 8.84884 125.813 14.6485 143.383 35.2933C148.887 41.7627 153.776 47.8741 157.631 53.9386C159.702 57.1947 161.475 60.4432 162.882 63.722C163.465 65.0759 163.981 66.4332 164.432 67.803C167.363 76.6566 167.506 85.9076 163.627 96.4689L163.629 96.4683Z" fill="#C2C6D2"/>
<path d="M79.0161 106.147C83.1008 104.705 85.724 101.583 84.8752 99.1733C84.0265 96.7636 80.0271 95.9785 75.9424 97.4199C71.8577 98.8613 69.2345 101.983 70.0832 104.393C70.932 106.803 74.9314 107.588 79.0161 106.147Z" fill="#FF91BD"/>
<g opacity="0.6">
<path opacity="0.6" d="M166.143 74.8786C162.983 63.0758 154.763 52.1102 144.34 39.8598C132.537 25.992 120.442 18.8226 107.605 17.4839C107.636 17.6046 107.651 17.7253 107.651 17.8494C107.651 19.553 104.846 20.9379 101.387 20.9379C97.9275 20.9379 95.2264 19.6033 95.1292 17.9425C92.8402 18.3315 90.5277 18.884 88.1842 19.5957C56.4283 29.2357 44.3608 63.9117 49.2028 92.0445C42.1414 63.231 53.7306 25.2016 87.2319 15.0285C107.597 8.84746 125.813 14.6471 143.383 35.2919C155.136 49.1059 164.09 61.2853 166.142 74.8772L166.143 74.8786Z" fill="#EEF8FF"/>
</g>
<path d="M97.5321 129.872C85.5845 129.872 73.7782 127.343 64.9059 120.652C49.8734 109.319 42.6121 85.6986 46.8346 61.8757C51.0806 37.9148 66.0159 19.8454 86.7821 13.5409C108.244 7.02114 127.143 13.8119 144.568 34.2843C161.215 53.8435 174.25 72.0626 165.088 97.0055C160.758 108.797 145.624 119.791 125.595 125.695C117.157 128.183 107.295 129.872 97.5314 129.872H97.5321ZM102.236 14.223C97.5486 14.223 92.7107 14.9927 87.684 16.5183C68.0617 22.4759 53.9347 39.6343 49.8968 62.4199C45.8727 85.1179 52.6558 107.521 66.7766 118.167C79.3065 127.613 102.047 129.391 124.717 122.711C143.822 117.079 158.171 106.818 162.168 95.9317C170.765 72.5281 158.773 55.7739 142.2 36.3016C129.559 21.4517 116.603 14.223 102.236 14.223H102.236Z" fill="#252728"/>
<path d="M157.931 81.1687C162.137 79.6845 164.859 76.5278 164.01 74.118C163.161 71.7083 159.063 70.9579 154.857 72.4421C150.651 73.9263 147.93 77.083 148.779 79.4928C149.627 81.9026 153.725 82.6529 157.931 81.1687Z" fill="#FF91BD"/>
<path d="M76.1187 86.5911C75.2347 81.2756 76.98 74.6648 82.5972 72.4819C88.1579 69.8541 94.735 74.0751 95.7438 79.7499C95.9436 80.4962 94.8576 80.9017 94.5055 80.23C87.9877 70.7328 78.7654 75.8711 77.7607 86.5124C77.7228 87.4801 76.2359 87.5435 76.118 86.5911H76.1187Z" fill="#252728"/>
<path d="M135.718 67.4926C131.271 56.5112 142.745 47.4948 149.681 58.9376C150.091 59.6418 149.121 60.3811 148.546 59.8259C140.845 53.4758 136.6 58.1823 136.534 67.3291C136.564 67.7926 135.864 67.9306 135.718 67.4926V67.4926Z" fill="#252728"/>
<path d="M120.885 172.506C120.135 172.506 119.476 171.959 119.351 171.192C119.351 171.192 119.294 170.822 119.247 170.202C119.186 169.372 119.785 168.616 120.61 168.516C121.461 168.41 122.188 168.959 122.329 169.779C122.383 170.414 122.42 170.688 122.427 170.717C122.555 171.564 121.973 172.355 121.128 172.487C121.047 172.499 120.967 172.506 120.885 172.506V172.506Z" fill="#39005E"/>
<g opacity="0.5">
<path opacity="0.5" d="M172.033 141.204C172.033 141.964 172.002 142.717 171.949 143.463H113.291C113.237 142.717 113.207 141.964 113.207 141.204C113.207 124.942 126.374 111.763 142.62 111.763C158.866 111.763 172.033 124.942 172.033 141.204V141.204Z" fill="#A1D9FF"/>
</g>
<g opacity="0.5">
<path opacity="0.5" d="M159.275 205.819H125.965C122.164 205.819 118.984 202.931 118.615 199.144L113.207 143.497H172.033L166.624 199.144C166.256 202.931 163.076 205.819 159.274 205.819H159.275Z" fill="#A1D9FF"/>
</g>
<path d="M164.775 162.232C164.817 164.722 161.998 166.438 155.607 166.438C149.216 166.438 140.492 162.852 139.972 162.626C143.803 164.106 151.863 154.906 159.809 156.498C163.629 157.263 164.775 159.556 164.775 162.232Z" fill="#D17069"/>
<path d="M155.607 167.995C148.663 167.995 140.289 164.459 139.357 164.055C138.579 163.719 138.213 162.822 138.532 162.037C138.852 161.254 139.747 160.872 140.531 161.175C141.544 161.557 144.124 160.183 146.419 158.963C150.493 156.8 155.57 154.123 160.566 155.369C163.914 156.206 165.795 158.38 166.313 162.012C166.324 162.076 166.33 162.141 166.33 162.207C166.35 163.433 165.896 164.554 165.018 165.446C163.356 167.137 160.19 167.994 155.607 167.994V167.995ZM145.43 162.975C148.394 163.918 152.247 164.883 155.607 164.883C160.664 164.883 162.323 163.751 162.8 163.265C163.076 162.986 163.208 162.699 163.221 162.344C162.861 159.995 161.929 158.919 159.813 158.391C155.97 157.431 151.664 159.704 147.875 161.713C147.028 162.161 146.213 162.595 145.429 162.976L145.43 162.975Z" fill="#252728"/>
<path d="M150.575 170.126L144.073 171.873C143.22 172.102 142.343 171.596 142.114 170.741L125.235 107.759C126.378 107.874 127.588 107.939 128.868 107.939C131.256 107.939 133.433 107.748 135.419 107.392L151.705 168.165C151.934 169.018 151.428 169.896 150.575 170.125L150.575 170.126Z" fill="#FFF280"/>
<path d="M143.663 173.482C142.27 173.482 140.991 172.555 140.611 171.148L123.735 108.163C123.6 107.67 123.721 107.143 124.051 106.754C124.381 106.366 124.889 106.144 125.39 106.213C128.468 106.519 132.143 106.4 135.147 105.861C135.937 105.735 136.712 106.212 136.92 106.991L153.204 167.762C153.423 168.576 153.312 169.426 152.891 170.157C152.471 170.888 151.791 171.412 150.977 171.63L144.477 173.377C144.204 173.449 143.932 173.483 143.662 173.483L143.663 173.482ZM127.301 109.464L143.613 170.339L150.17 168.623H150.174C150.194 168.618 150.208 168.589 150.204 168.567L134.28 109.146C132.083 109.444 129.616 109.558 127.302 109.464L127.301 109.464Z" fill="#252728"/>
<path d="M172.416 67.4098C169.781 69.81 166.823 67.1374 164.433 67.803C163.011 68.1995 161.791 69.7755 160.955 74.2958C159.047 84.6165 153.314 109.851 125.234 107.762C111.278 106.323 107.096 96.8504 107.096 96.8504L105.953 92.6025L104.422 86.9111C104.422 86.9111 104.621 86.3159 105.067 85.351L105.071 85.3469C106.587 82.0866 110.886 74.4351 120.081 71.9998C130.971 69.1175 139.463 76.2752 139.463 76.2752C139.463 76.2752 140.299 72.2839 146.233 64.8186C149.673 60.4928 153.474 56.3774 157.632 53.9379C159.672 52.7434 161.802 51.9502 164.013 51.7364C164.013 51.7364 167.449 44.4697 171.65 46.7651C173.776 47.9279 174.238 49.6749 173.928 51.3164C173.629 52.9193 172.594 54.4207 171.65 55.1753C171.65 55.1753 171.716 55.2884 171.829 55.4946C172.68 57.0664 176.131 64.0296 172.416 67.4098V67.4098Z" fill="#C2C6D2"/>
<g opacity="0.6">
<path opacity="0.6" d="M139.463 76.2752C138.339 77.9671 137.726 79.0409 137.726 79.0409C137.726 79.0409 130.426 71.7936 120.144 75.0572C110.541 78.1057 105.262 85.1441 105.072 85.3462C106.588 82.086 110.948 74.6524 120.082 71.9991C129.28 69.3265 136.638 74.0337 139.463 76.2745L139.463 76.2752Z" fill="#EEF8FF"/>
</g>
<g opacity="0.6">
<path opacity="0.6" d="M173.928 51.3164C172.506 50.3246 170.955 49.4611 170.014 49.6087C167.915 49.9432 165.918 55.1753 165.918 55.1753C160.932 52.042 145.713 66.0311 140.338 75.2848C140.338 75.2848 145.007 65.4945 151.449 58.7707C155.821 54.2083 162.131 51.9178 164.013 51.7364C164.013 51.7364 167.449 44.4697 171.65 46.7651C173.776 47.9279 174.238 49.6749 173.927 51.3164H173.928Z" fill="#EEF8FF"/>
</g>
<path d="M107.86 96.5131C115.353 109.048 133.236 108.53 144.356 101.545C155.169 95.1496 157.404 82.2446 160.173 70.9646C160.934 68.9982 162.406 66.7795 164.808 66.4436C167.253 66.1532 168.914 67.014 170.064 66.8243C174.477 65.5132 172.076 59.2514 170.313 55.9677C169.95 55.3056 170.1 54.5007 170.628 54.009C172.357 52.5372 173.537 49.3839 170.872 48.1148C168.579 47.0099 166.414 50.5357 165.417 52.4006C165.174 52.8931 164.687 53.2089 164.183 53.2814C153.001 55.3725 145.767 67.4554 140.583 76.8801C140.118 77.8298 138.787 78.0319 138.055 77.2767C127.641 67.0946 109.754 74.3924 105.304 87.2056C105.144 87.7201 104.572 88.0043 104.069 87.8001C103.6 87.6139 103.367 87.087 103.539 86.6159C104.846 83.0446 106.858 79.9306 109.429 77.2105C117.216 68.7685 131.576 66.9064 140.309 75.1331C140.311 75.131 137.776 75.5324 137.784 75.5255C143.622 65.0193 151.026 52.5358 163.839 50.188L162.607 51.0681C164.253 47.6375 168.061 43.1179 172.318 45.3595C176.825 47.4589 176.168 53.6545 172.623 56.3905L172.99 54.3849C175.895 59.0797 177.973 68.5265 170.374 69.9541C168.044 70.1024 166.35 69.3017 165.316 69.5341C162.929 70.1369 162.326 74.4951 161.772 76.8373C159.963 87.3084 155.338 98.127 145.851 103.912C138.01 108.632 128.185 110.336 119.513 107.78C113.989 106.074 108.939 102.489 106.33 97.1904C105.868 96.1731 107.423 95.4965 107.859 96.5131H107.86Z" fill="#252728"/>
<path d="M140.587 76.8711C138.417 80.7397 133.915 84.0875 129.399 82.3032C128.989 82.1722 128.763 81.7328 128.895 81.3225C129.025 80.9121 129.462 80.6934 129.865 80.8121C133.556 81.7549 136.511 78.5988 137.787 75.5138C138.624 73.5026 141.647 74.9614 140.587 76.8711V76.8711Z" fill="#39005E"/>
<g opacity="0.2">
<path opacity="0.2" d="M171.829 55.4939L167.946 59.528C168.688 63.6199 166.155 63.4572 162.882 63.7213C161.106 63.8655 159.112 64.1379 157.301 65.2814C152.156 68.5334 150.104 80.47 145.211 88.505C138.498 99.5257 129.632 88.505 122.975 92.0452C119.886 93.6874 120.729 99.5257 115.908 99.5278C110.662 99.5298 109.484 90.69 105.954 92.6018C100.988 95.2909 102.736 108.295 120.73 111.764C124.542 112.5 128.266 112.796 131.755 112.803C110.155 120.027 84.0842 120.494 68.9656 109.099C53.0739 97.118 46.995 71.7432 52.1175 48.7142C51.0949 51.3343 50.237 54.0228 49.5376 56.7512C49.6176 56.4402 49.6975 56.1298 49.7816 55.8201C44.4827 78.9664 50.5361 104.592 66.5291 116.65C88.7754 133.424 134.748 124.5 155.28 106.15C155.545 105.913 155.805 105.676 156.062 105.434C156.355 105.158 156.644 104.882 156.928 104.605C157.139 104.4 157.349 104.196 157.547 103.978C157.548 103.978 157.549 103.976 157.55 103.976C157.725 103.796 157.896 103.618 158.067 103.435C158.094 103.404 158.121 103.376 158.148 103.345C158.219 103.275 158.284 103.201 158.35 103.127C158.545 102.913 158.739 102.699 158.926 102.482C159.12 102.264 159.311 102.042 159.493 101.816C159.528 101.778 159.559 101.738 159.59 101.7C159.772 101.482 159.947 101.26 160.122 101.042C160.146 101.011 160.169 100.98 160.189 100.953C160.391 100.696 160.585 100.44 160.776 100.179C160.854 100.074 160.931 99.965 161.005 99.8602C161.102 99.7319 161.195 99.5954 161.285 99.4636C161.394 99.3078 161.494 99.156 161.6 99.0008C161.759 98.756 161.918 98.5105 162.074 98.2615C162.086 98.2422 162.097 98.2263 162.105 98.207C162.19 98.0746 162.268 97.9421 162.35 97.8063C162.509 97.538 162.664 97.269 162.808 97.0007C162.882 96.8648 162.956 96.7324 163.026 96.5965C163.166 96.3358 163.294 96.0751 163.422 95.8144C163.434 95.7868 163.45 95.7599 163.461 95.733C163.52 95.6123 163.574 95.4916 163.632 95.3675C163.694 95.2316 163.757 95.0951 163.814 94.9551C163.876 94.8185 163.935 94.6785 163.989 94.5426C164.106 94.266 164.215 93.9902 164.316 93.7101C164.619 92.8853 164.899 92.0687 165.148 91.2597C165.229 91.0148 165.304 90.7693 165.377 90.5244C165.45 90.281 165.517 90.0403 165.585 89.7989C165.632 89.583 165.68 89.3678 165.722 89.1519C165.792 88.8133 165.858 88.4753 165.916 88.1401C167.222 80.9162 166.565 74.2524 164.431 67.803C166.822 67.1381 169.779 69.8107 172.414 67.4098C176.129 64.0296 172.678 57.0664 171.827 55.4946L171.829 55.4939Z" fill="#39005E"/>
</g>
<path d="M171.949 145.019H113.291C112.477 145.019 111.801 144.389 111.74 143.576C111.683 142.793 111.653 142.002 111.653 141.204C111.653 124.113 125.545 110.208 142.62 110.208C159.695 110.208 173.587 124.113 173.587 141.204C173.587 142.002 173.556 142.793 173.499 143.576C173.439 144.389 172.763 145.019 171.948 145.019H171.949ZM114.772 141.907H170.468C170.475 141.673 170.478 141.439 170.478 141.203C170.478 125.828 157.982 113.318 142.62 113.318C127.257 113.318 114.761 125.827 114.761 141.203C114.761 141.439 114.765 141.673 114.772 141.907V141.907Z" fill="#252728"/>
<path d="M159.275 207.376H125.966C121.343 207.376 117.517 203.902 117.067 199.296L111.66 143.648C111.619 143.212 111.76 142.777 112.057 142.453C112.349 142.128 112.77 141.942 113.207 141.942H172.033C172.47 141.942 172.891 142.128 173.184 142.453C173.48 142.777 173.621 143.212 173.581 143.648L168.173 199.293C167.723 203.902 163.897 207.376 159.274 207.376H159.275ZM114.92 145.054L120.162 198.994C120.455 201.998 122.951 204.265 125.966 204.265H159.275C162.29 204.265 164.786 201.998 165.079 198.993L170.321 145.054H114.92V145.054Z" fill="#252728"/>
<path d="M164.772 163.177L161.28 197.029C161.032 199.415 159.023 201.231 156.623 201.231H128.234C125.836 201.231 123.826 199.415 123.578 197.029L120.888 170.953L120.881 170.896L120.797 170.085C120.797 170.07 120.797 170.055 120.792 170.036C120.597 167.44 120.475 161.134 126.274 159.655C131.159 158.409 139.945 162.615 139.945 162.615C139.945 162.615 139.953 162.619 139.972 162.626C140.492 162.852 148.907 166.438 155.607 166.438C162.307 166.438 164.863 162.309 164.771 163.177H164.772Z" fill="#D17069"/>
<g opacity="0.2">
<path opacity="0.2" d="M157.405 171.605L155.061 192.834C154.894 194.33 153.545 195.468 151.934 195.468H132.873C131.262 195.468 129.913 194.33 129.747 192.834L127.941 176.482L127.936 176.446L127.88 175.938C127.88 175.929 127.88 175.919 127.877 175.907C127.746 174.279 127.664 170.325 131.557 169.398C134.838 168.616 140.737 171.254 140.737 171.254C140.737 171.254 140.742 171.256 140.755 171.261C141.104 171.402 146.754 173.651 151.253 173.651C155.752 173.651 157.467 171.062 157.405 171.606L157.405 171.605Z" fill="#39005E"/>
</g>
<path d="M156.624 202.787H128.234C125.031 202.787 122.362 200.381 122.029 197.191L119.25 170.247C118.584 161.352 123.126 158.853 125.892 158.147C131.158 156.8 139.663 160.756 140.615 161.21L141.557 161.598C146.191 163.539 157.041 168.076 163.716 161.859C164.194 161.416 164.89 161.317 165.469 161.604C166.048 161.892 166.388 162.512 166.323 163.157L162.828 197.189C162.495 200.381 159.827 202.787 156.624 202.787V202.787ZM128.334 160.978C127.725 160.978 127.16 161.035 126.659 161.161C123.422 161.988 121.968 164.935 122.345 169.919L125.124 196.869C125.289 198.469 126.628 199.676 128.233 199.676H156.623C158.228 199.676 159.567 198.469 159.732 196.868L162.877 166.262C154.897 170.566 144.547 166.227 140.358 164.469L139.369 164.06C137.307 163.079 132.031 160.979 128.333 160.979L128.334 160.978Z" fill="#252728"/>
<path d="M139.972 164.182C139.774 164.182 139.569 164.144 139.374 164.063L140.571 161.19C141.361 161.521 141.738 162.431 141.409 163.224C141.16 163.822 140.581 164.182 139.972 164.182V164.182Z" fill="#39005E"/>
<path d="M129.25 179.056C131.993 179.056 134.216 176.83 134.216 174.085C134.216 171.34 131.993 169.114 129.25 169.114C126.508 169.114 124.284 171.34 124.284 174.085C124.284 176.83 126.508 179.056 129.25 179.056Z" fill="#8A3A34"/>
<path d="M147.909 182.537C148.348 179.827 146.51 177.274 143.803 176.834C141.096 176.394 138.545 178.234 138.105 180.944C137.666 183.654 139.504 186.207 142.211 186.647C144.919 187.087 147.47 185.247 147.909 182.537Z" fill="#8A3A34"/>
<path d="M155.226 179.056C157.968 179.056 160.192 176.83 160.192 174.085C160.192 171.34 157.968 169.114 155.226 169.114C152.483 169.114 150.26 171.34 150.26 174.085C150.26 176.83 152.483 179.056 155.226 179.056Z" fill="#8A3A34"/>
<g opacity="0.2">
<path opacity="0.2" d="M160.193 174.083C160.193 176.829 157.97 179.054 155.227 179.054C152.483 179.054 150.26 176.829 150.26 174.083C150.26 171.59 152.098 169.52 154.496 169.169C152.946 169.52 151.787 170.905 151.787 172.561C151.787 174.483 153.346 176.043 155.266 176.043C157.185 176.043 158.74 174.483 158.74 172.561C158.74 170.963 157.664 169.616 156.198 169.212C158.475 169.66 160.193 171.671 160.193 174.083V174.083Z" fill="#39005E"/>
</g>
<g opacity="0.2">
<path opacity="0.2" d="M147.969 181.703C147.969 184.449 145.746 186.674 143.002 186.674C140.259 186.674 138.036 184.449 138.036 181.703C138.036 179.209 139.874 177.14 142.272 176.789C140.722 177.14 139.563 178.525 139.563 180.181C139.563 182.103 141.122 183.663 143.042 183.663C144.961 183.663 146.516 182.103 146.516 180.181C146.516 178.582 145.44 177.236 143.974 176.832C146.251 177.28 147.969 179.291 147.969 181.703V181.703Z" fill="#39005E"/>
</g>
<g opacity="0.2">
<path opacity="0.2" d="M134.218 174.056C134.218 176.802 131.995 179.027 129.251 179.027C126.507 179.027 124.284 176.802 124.284 174.056C124.284 171.563 126.123 169.493 128.521 169.143C126.97 169.493 125.812 170.878 125.812 172.535C125.812 174.456 127.37 176.016 129.29 176.016C131.21 176.016 132.764 174.456 132.764 172.535C132.764 170.936 131.688 169.589 130.222 169.185C132.5 169.633 134.218 171.644 134.218 174.056V174.056Z" fill="#39005E"/>
</g>
<g opacity="0.2">
<path opacity="0.2" d="M135.745 190.496C135.745 193.243 133.523 195.468 130.779 195.468C128.035 195.468 125.812 193.243 125.812 190.496C125.812 188.003 127.65 185.933 130.048 185.583C128.498 185.933 127.34 187.318 127.34 188.975C127.34 190.896 128.898 192.456 130.818 192.456C132.738 192.456 134.292 190.896 134.292 188.975C134.292 187.376 133.216 186.03 131.75 185.626C134.028 186.073 135.745 188.084 135.745 190.496V190.496Z" fill="#39005E"/>
</g>
<path d="M130.779 195.497C133.521 195.497 135.745 193.271 135.745 190.526C135.745 187.781 133.521 185.555 130.779 185.555C128.036 185.555 125.812 187.781 125.812 190.526C125.812 193.271 128.036 195.497 130.779 195.497Z" fill="#8A3A34"/>
<path d="M152.934 196.644C155.676 196.644 157.9 194.418 157.9 191.673C157.9 188.928 155.676 186.702 152.934 186.702C150.191 186.702 147.968 188.928 147.968 191.673C147.968 194.418 150.191 196.644 152.934 196.644Z" fill="#8A3A34"/>
<g opacity="0.2">
<path opacity="0.2" d="M135.745 190.496C135.745 193.243 133.523 195.468 130.779 195.468C128.035 195.468 125.812 193.243 125.812 190.496C125.812 188.003 127.65 185.933 130.048 185.583C128.498 185.933 127.34 187.318 127.34 188.975C127.34 190.896 128.898 192.456 130.818 192.456C132.738 192.456 134.292 190.896 134.292 188.975C134.292 187.376 133.216 186.03 131.75 185.626C134.028 186.073 135.745 188.084 135.745 190.496V190.496Z" fill="#39005E"/>
</g>
<g opacity="0.2">
<path opacity="0.2" d="M157.901 191.644C157.901 194.39 155.678 196.615 152.934 196.615C150.19 196.615 147.967 194.39 147.967 191.644C147.967 189.151 149.806 187.081 152.204 186.731C150.653 187.081 149.495 188.466 149.495 190.123C149.495 192.044 151.054 193.604 152.973 193.604C154.893 193.604 156.448 192.044 156.448 190.123C156.448 188.524 155.371 187.178 153.906 186.773C156.183 187.221 157.901 189.232 157.901 191.644V191.644Z" fill="#39005E"/>
</g>
<path d="M129.249 180.029C125.976 180.029 123.311 177.362 123.311 174.085C123.311 170.808 125.976 168.141 129.249 168.141C132.523 168.141 135.188 170.808 135.188 174.085C135.188 177.362 132.523 180.029 129.249 180.029ZM129.249 170.087C127.046 170.087 125.256 171.881 125.256 174.085C125.256 176.289 127.046 178.082 129.249 178.082C131.453 178.082 133.243 176.289 133.243 174.085C133.243 171.881 131.453 170.087 129.249 170.087Z" fill="#252728"/>
<path d="M143 187.675C139.727 187.675 137.065 185.008 137.065 181.732C137.065 178.455 139.727 175.788 143 175.788C146.274 175.788 148.939 178.455 148.939 181.732C148.939 185.008 146.274 187.675 143 187.675ZM143 177.734C140.8 177.734 139.01 179.527 139.01 181.732C139.01 183.936 140.8 185.729 143 185.729C145.2 185.729 146.994 183.936 146.994 181.732C146.994 179.527 145.204 177.734 143 177.734Z" fill="#252728"/>
<path d="M155.227 180.029C151.954 180.029 149.289 177.362 149.289 174.085C149.289 170.808 151.954 168.141 155.227 168.141C158.501 168.141 161.162 170.808 161.162 174.085C161.162 177.362 158.501 180.029 155.227 180.029ZM155.227 170.087C153.024 170.087 151.234 171.881 151.234 174.085C151.234 176.289 153.024 178.082 155.227 178.082C157.431 178.082 159.218 176.289 159.218 174.085C159.218 171.881 157.428 170.087 155.227 170.087Z" fill="#252728"/>
<path d="M130.777 196.47C127.503 196.47 124.839 193.803 124.839 190.526C124.839 187.249 127.503 184.582 130.777 184.582C134.051 184.582 136.715 187.249 136.715 190.526C136.715 193.803 134.051 196.47 130.777 196.47ZM130.777 186.529C128.574 186.529 126.783 188.322 126.783 190.526C126.783 192.73 128.574 194.524 130.777 194.524C132.981 194.524 134.771 192.73 134.771 190.526C134.771 188.322 132.981 186.529 130.777 186.529Z" fill="#252728"/>
<path d="M152.932 197.617C149.659 197.617 146.994 194.95 146.994 191.673C146.994 188.396 149.659 185.729 152.932 185.729C156.206 185.729 158.871 188.396 158.871 191.673C158.871 194.95 156.206 197.617 152.932 197.617ZM152.932 187.675C150.729 187.675 148.939 189.469 148.939 191.673C148.939 193.877 150.729 195.67 152.932 195.67C155.136 195.67 156.926 193.877 156.926 191.673C156.926 189.469 155.136 187.675 152.932 187.675Z" fill="#252728"/>
<path d="M155.891 172.939C156.788 172.939 157.515 172.464 157.515 171.877C157.515 171.29 156.788 170.814 155.891 170.814C154.994 170.814 154.267 171.29 154.267 171.877C154.267 172.464 154.994 172.939 155.891 172.939Z" fill="#EEF8FF"/>
<path d="M142.986 179.952C143.724 179.952 144.323 179.56 144.323 179.077C144.323 178.594 143.724 178.202 142.986 178.202C142.249 178.202 141.65 178.594 141.65 179.077C141.65 179.56 142.249 179.952 142.986 179.952Z" fill="#EEF8FF"/>
<path d="M130.778 188.891C131.516 188.891 132.115 188.5 132.115 188.017C132.115 187.534 131.516 187.142 130.778 187.142C130.041 187.142 129.442 187.534 129.442 188.017C129.442 188.5 130.041 188.891 130.778 188.891Z" fill="#EEF8FF"/>
<path d="M153.124 190.14C153.862 190.14 154.46 189.749 154.46 189.266C154.46 188.783 153.862 188.391 153.124 188.391C152.386 188.391 151.788 188.783 151.788 189.266C151.788 189.749 152.386 190.14 153.124 190.14Z" fill="#EEF8FF"/>
<path d="M129.442 172.563C130.179 172.563 130.778 172.171 130.778 171.688C130.778 171.205 130.179 170.814 129.442 170.814C128.704 170.814 128.105 171.205 128.105 171.688C128.105 172.171 128.704 172.563 129.442 172.563Z" fill="#EEF8FF"/>
<g opacity="0.5">
<path opacity="0.5" d="M172.8 138.145H112.44C110.332 138.145 108.623 139.855 108.623 141.966V146.941C108.623 149.051 110.332 150.762 112.44 150.762H172.8C174.908 150.762 176.617 149.051 176.617 146.941V141.966C176.617 139.855 174.908 138.145 172.8 138.145Z" fill="#A1D9FF"/>
</g>
<path d="M172.8 152.318H112.44C109.475 152.318 107.066 149.907 107.066 146.942V141.966C107.066 139.001 109.475 136.59 112.44 136.59H172.8C175.761 136.59 178.17 139.001 178.17 141.966V146.942C178.17 149.907 175.761 152.318 172.8 152.318ZM112.44 139.701C111.191 139.701 110.175 140.717 110.175 141.966V146.942C110.175 148.192 111.192 149.207 112.44 149.207H172.8C174.048 149.207 175.061 148.192 175.061 146.942V141.966C175.061 140.717 174.048 139.701 172.8 139.701H112.44Z" fill="#252728"/>
<path d="M95.7929 208.383C95.0225 208.383 94.2349 208.361 93.4377 208.321C87.9569 208.035 83.1121 205.012 80.4806 200.235C77.8463 195.456 76.5103 190.388 76.5103 185.173C76.5103 181.983 77.025 179.019 78.0448 176.365C79.303 173.085 81.3116 170.29 84.0169 168.054C85.7092 166.653 87.6199 165.509 89.703 164.651C92.3172 163.568 95.1031 162.97 97.5458 162.97C98.2121 162.97 98.9859 162.999 99.8335 163.086C102.26 163.328 104.52 163.933 106.549 164.882C109.816 166.411 112.373 168.785 114.149 171.939C116.814 176.642 119.099 183.266 115.852 196.719C114.789 201.12 111.815 204.687 107.895 206.259C104.382 207.671 100.318 208.383 95.7929 208.383V208.383ZM97.5458 166.082C95.5338 166.082 93.1048 166.609 90.8909 167.528C89.0945 168.267 87.4491 169.251 85.9958 170.451C83.7082 172.342 82.0089 174.708 80.9457 177.479C80.0679 179.776 79.62 182.364 79.62 185.173C79.62 189.856 80.8279 194.417 83.2065 198.733C85.313 202.56 89.1986 204.983 93.5996 205.212C97.0587 205.398 102.139 205.217 106.738 203.37C109.769 202.154 111.99 199.464 112.831 195.988C115.815 183.622 113.928 177.858 111.445 173.473C109.992 170.893 107.902 168.952 105.23 167.702C103.521 166.902 101.6 166.39 99.5207 166.183C98.7841 166.107 98.1177 166.082 97.5458 166.082V166.082Z" fill="#252728"/>
<path d="M104.847 196.306C108.353 192.797 108.353 187.108 104.847 183.599C101.342 180.09 95.6577 180.09 92.1519 183.599C88.6462 187.108 88.6462 192.797 92.1519 196.306C95.6577 199.815 101.342 199.815 104.847 196.306Z" fill="#EEF8FF"/>
<path d="M87.6139 173.512C87.6139 176.15 85.475 178.291 82.8387 178.291C81.5398 178.291 80.356 177.771 79.4961 176.922C80.7529 173.642 82.7354 171.13 85.0044 169.252C86.5514 170.044 87.6132 171.653 87.6132 173.512H87.6139Z" fill="#EEF8FF"/>
<path d="M82.8394 179.847C81.1671 179.847 79.5926 179.203 78.4046 178.032C77.9636 177.598 77.8224 176.942 78.0449 176.365C79.3032 173.085 81.3118 170.29 84.017 168.052C84.4945 167.658 85.1643 167.584 85.7162 167.867C87.8461 168.959 89.1684 171.121 89.1684 173.511C89.1684 177.005 86.3288 179.847 82.8394 179.847V179.847ZM81.4027 176.399C81.8437 176.62 82.3316 176.735 82.8394 176.735C84.6158 176.735 86.0594 175.289 86.0594 173.511C86.0594 172.639 85.7128 171.828 85.114 171.231C83.5491 172.711 82.3081 174.442 81.4027 176.399Z" fill="#252728"/>
<path d="M95.0622 172.199C91.6707 172.199 88.8951 169.547 88.7401 166.161C88.7132 165.506 89.0936 164.903 89.6993 164.652C92.317 163.568 95.1029 162.97 97.5456 162.97C98.2119 162.97 98.9857 162.999 99.8333 163.086C100.476 163.151 101.011 163.609 101.179 164.234C101.32 164.769 101.391 165.318 101.391 165.864C101.391 169.356 98.5516 172.199 95.0622 172.199V172.199ZM92.0779 167.079C92.5554 168.263 93.713 169.088 95.0622 169.088C96.7614 169.088 98.154 167.767 98.2753 166.096C98.0162 166.086 97.7737 166.082 97.5449 166.082C95.8863 166.082 93.948 166.441 92.0772 167.079H92.0779Z" fill="#39005E"/>
<path d="M108.813 176.405C105.325 176.405 102.484 173.563 102.484 170.07C102.484 168.102 103.376 166.277 104.934 165.064C105.402 164.704 106.021 164.638 106.549 164.882C109.816 166.411 112.373 168.785 114.149 171.939C114.439 172.448 114.415 173.075 114.092 173.563C112.918 175.343 110.943 176.405 108.813 176.405V176.405ZM106.192 168.196C105.805 168.737 105.593 169.387 105.593 170.07C105.593 171.847 107.037 173.293 108.813 173.293C109.58 173.293 110.304 173.022 110.876 172.544C109.664 170.722 108.097 169.266 106.192 168.196Z" fill="#39005E"/>
<path d="M87.9588 167.448C82.9293 161.222 73.5926 160.016 67.1258 164.814C66.1659 165.494 65.244 166.244 64.2924 166.956C64.0133 167.165 63.6171 167.109 63.4076 166.829C63.2071 166.562 63.2519 166.186 63.5007 165.971C70.8729 158.098 82.7309 157.296 90.3236 165.429C91.8189 167.006 89.2935 169.177 87.9581 167.448H87.9588Z" fill="#252728"/>
<path d="M176.617 130.88C175.009 135.985 172.125 138.871 169.062 140.469C169.054 140.473 169.05 140.473 169.05 140.473C168.763 140.397 168.481 140.317 168.202 140.232C165.452 139.422 163.159 138.332 161.246 137.055C160.466 136.539 159.752 135.988 159.095 135.415C156.402 133.06 154.683 130.295 153.602 127.55C153.171 126.445 152.838 125.34 152.59 124.27C151.899 121.311 151.83 118.592 151.91 116.711C151.982 115.089 152.169 114.092 152.169 114.092C152.169 114.092 152.169 114.088 152.174 114.088V114.084C166.051 107.137 180.322 119.135 176.617 130.88V130.88Z" fill="#C2C6D2"/>
<g opacity="0.6">
<path opacity="0.6" d="M176.617 130.88C176.143 132.389 175.552 133.704 174.88 134.848C174.993 134.544 175.101 134.226 175.202 133.902C178.801 122.485 165.416 110.826 151.918 116.576C151.992 115.035 152.171 114.09 152.171 114.09C152.171 114.09 152.171 114.086 152.175 114.086V114.082C166.05 107.134 180.321 119.135 176.618 130.879L176.617 130.88Z" fill="#EEF8FF"/>
</g>
<path d="M152.59 124.269C151.899 121.31 151.83 118.592 151.91 116.71C153.881 116.21 156.455 115.907 157.135 117.498C157.968 119.444 155.573 121.994 152.59 124.269V124.269Z" fill="#EEF8FF"/>
<path d="M159.095 135.415C156.402 133.06 154.683 130.295 153.602 127.55C156.169 125.868 159.817 124.002 162.102 125.145C164.967 126.579 161.169 132.529 159.095 135.415V135.415Z" fill="#EEF8FF"/>
<path d="M168.202 140.232C165.452 139.422 163.159 138.332 161.246 137.055C163.141 134.566 166.173 131.301 168.595 132.027C170.444 132.582 169.462 136.657 168.202 140.232Z" fill="#EEF8FF"/>
<path d="M169.049 142.028C168.914 142.028 168.779 142.012 168.652 141.976L167.753 141.722C165.004 140.912 162.521 139.775 160.385 138.349C159.551 137.798 158.78 137.204 158.074 136.586C155.46 134.301 153.468 131.454 152.156 128.121C151.715 126.99 151.351 125.814 151.076 124.62C150.336 121.445 150.275 118.528 150.356 116.643C150.436 114.885 150.642 113.807 150.642 113.807C150.783 113.453 151.136 112.862 151.476 112.693C160.173 108.335 168.242 111.031 172.895 115.005C177.928 119.305 179.923 125.567 178.1 131.348C176.559 136.239 173.76 139.772 169.783 141.848C169.561 141.964 169.299 142.028 169.05 142.028H169.049ZM153.592 115.131C153.541 115.565 153.494 116.116 153.463 116.781C153.39 118.468 153.443 121.08 154.103 123.916C154.345 124.965 154.664 125.998 155.052 126.985C156.176 129.845 157.881 132.288 160.119 134.242C160.725 134.773 161.381 135.28 162.101 135.756C163.985 137.012 166.182 138.016 168.638 138.74L168.897 138.812C171.73 137.192 173.897 134.338 175.132 130.412C176.575 125.843 174.943 120.846 170.875 117.372C167.11 114.154 160.65 111.951 153.592 115.131V115.131Z" fill="#252728"/>
<path d="M152.589 125.825C152.41 125.825 152.232 125.794 152.064 125.734C151.566 125.554 151.196 125.136 151.074 124.622C150.334 121.445 150.274 118.529 150.354 116.643C150.385 115.956 150.862 115.369 151.525 115.201C156.242 114.006 157.955 115.457 158.564 116.887C160.108 120.492 155.159 124.267 153.53 125.507C153.255 125.716 152.924 125.825 152.588 125.825H152.589ZM153.436 117.977C153.44 118.953 153.49 120.105 153.649 121.356C155.543 119.578 155.876 118.51 155.704 118.111C155.64 117.959 154.974 117.721 153.436 117.977Z" fill="#252728"/>
<path d="M159.096 136.97C158.723 136.97 158.36 136.836 158.074 136.586C155.46 134.301 153.468 131.454 152.156 128.121C151.886 127.434 152.136 126.653 152.751 126.249C157.071 123.417 160.453 122.582 162.797 123.751C163.709 124.209 164.322 124.977 164.567 125.972C165.115 128.19 163.699 131.672 160.358 136.321C160.103 136.678 159.709 136.909 159.275 136.959C159.214 136.966 159.157 136.969 159.096 136.969V136.97ZM155.557 128.163C156.411 129.98 157.515 131.607 158.854 133.026C161.118 129.6 161.744 127.509 161.549 126.719C160.355 126.025 158.198 126.612 155.557 128.164V128.163Z" fill="#252728"/>
<path d="M168.201 141.788C168.056 141.788 167.908 141.768 167.763 141.724C165.004 140.912 162.522 139.775 160.385 138.349C160.025 138.11 159.783 137.734 159.712 137.312C159.641 136.887 159.749 136.453 160.008 136.111C163.413 131.637 166.441 129.746 169.042 130.537C169.785 130.759 170.374 131.258 170.737 131.977C171.252 132.987 171.697 134.994 169.667 140.75C169.442 141.386 168.843 141.787 168.2 141.787L168.201 141.788ZM163.571 136.649C164.695 137.272 165.913 137.817 167.215 138.277C168.453 134.31 167.972 133.395 167.965 133.386C167.39 133.27 165.815 134.035 163.571 136.649V136.649Z" fill="#252728"/>
<path d="M126.221 160.841C126.214 160.934 126.21 161.024 126.198 161.117C126.139 161.919 126.042 162.77 125.891 163.662C125.871 163.817 125.84 163.984 125.813 164.144C125.226 167.489 124.243 170.301 122.902 172.573C122.381 173.46 121.809 174.265 121.184 174.985C118.817 177.712 115.735 179.245 112.101 179.548C107.9 179.902 102.96 178.611 97.5463 175.615C85.2846 168.831 76.9173 156.114 73.4775 146.556L77.8152 143.456L90.8735 134.12L94.8728 131.26C94.8728 131.26 94.8728 132.159 95.9374 133.656C95.9684 133.707 96.0035 133.758 96.0421 133.808C97.4257 135.695 100.461 138.472 107.095 141.584C114.426 145.027 120.659 146.953 123.889 151.243C124.631 152.22 125.214 153.317 125.619 154.585V154.589C126.175 156.32 126.392 158.367 126.221 160.841L126.221 160.841Z" fill="#C2C6D2"/>
<g opacity="0.6">
<path opacity="0.6" d="M126.222 160.841C126.214 160.934 126.21 161.024 126.198 161.117C121.519 149.252 109.852 148.019 102.821 142.639C97.4193 138.501 96.1445 135.385 95.9385 133.658C95.9695 133.708 96.0046 133.759 96.0432 133.809C97.4268 135.696 100.462 138.474 107.096 141.586C114.427 145.029 120.66 146.954 123.89 151.245C124.632 152.221 125.215 153.318 125.62 154.586V154.591C126.176 156.322 126.393 158.368 126.222 160.842V160.841Z" fill="#EEF8FF"/>
</g>
<path d="M126.221 160.841C125.664 160.952 125.078 161.009 124.476 161.009C120.786 161.009 117.791 158.818 117.791 156.115C117.791 153.557 120.476 151.458 123.891 151.243C125.641 153.553 126.516 156.551 126.222 160.841H126.221Z" fill="#EEF8FF"/>
<path d="M125.893 163.662C125.87 163.819 125.839 163.984 125.813 164.144C125.229 167.49 124.243 170.304 122.903 172.575C122.417 172.541 121.921 172.468 121.42 172.346C117.83 171.478 115.435 168.645 116.069 166.014C116.702 163.387 120.125 161.961 123.712 162.826C124.503 163.017 125.236 163.304 125.893 163.663V163.662Z" fill="#EEF8FF"/>
<path d="M121.183 174.987C118.818 177.713 115.736 179.247 112.103 179.549C110.598 177.396 110.349 174.873 111.687 173.259C113.409 171.176 117.111 171.397 119.957 173.757C120.415 174.139 120.828 174.552 121.183 174.988L121.183 174.987Z" fill="#EEF8FF"/>
<path d="M74.0386 146.355C81.1097 159.919 91.4194 173.573 106.717 177.46C111.539 178.614 116.667 177.664 119.756 174.013C125.238 167.205 127.926 153.191 118.235 148.478C109.668 143.489 95.0322 140.589 94.0434 128.299C94.0089 127.333 95.5055 127.166 95.6675 128.13C99.6874 144.722 129.584 140.431 127.873 160.403C124.033 202.35 77.7775 172.407 72.9224 146.757C72.7494 146.08 73.7465 145.718 74.0386 146.355Z" fill="#252728"/>
<path d="M124.476 162.564C119.856 162.564 116.236 159.732 116.236 156.115C116.236 152.722 119.486 149.961 123.793 149.691C124.307 149.649 124.812 149.888 125.128 150.304C127.21 153.049 128.075 156.529 127.773 160.946C127.726 161.647 127.214 162.229 126.524 162.366C125.868 162.497 125.182 162.564 124.475 162.564H124.476ZM123.143 152.899C120.986 153.295 119.344 154.633 119.344 156.115C119.344 157.977 121.912 159.503 124.721 159.449C124.751 156.778 124.24 154.657 123.143 152.899V152.899Z" fill="#252728"/>
<path d="M122.9 174.13C122.863 174.13 122.829 174.129 122.793 174.127C122.224 174.086 121.642 174.001 121.054 173.857C116.565 172.771 113.709 169.166 114.556 165.651C115.407 162.135 119.596 160.229 124.074 161.313C124.976 161.53 125.84 161.86 126.635 162.297C127.21 162.61 127.527 163.248 127.429 163.895C127.425 163.905 127.372 164.243 127.368 164.255C126.736 167.894 125.692 170.907 124.239 173.368C123.957 173.842 123.449 174.13 122.9 174.13V174.13ZM121.625 164.13C119.606 164.13 117.91 165.002 117.577 166.381C117.153 168.139 119.081 170.178 121.786 170.833C121.874 170.855 121.965 170.874 122.052 170.892C122.974 169.096 123.677 166.98 124.148 164.577C123.889 164.483 123.62 164.404 123.347 164.337C122.762 164.197 122.18 164.13 121.625 164.13Z" fill="#252728"/>
<path d="M112.104 181.105C111.6 181.105 111.122 180.859 110.832 180.441C108.884 177.658 108.747 174.373 110.489 172.266C111.63 170.887 113.49 170.172 115.493 170.287C117.383 170.402 119.322 171.207 120.95 172.557C121.491 173.01 121.976 173.495 122.39 174.007C122.864 174.593 122.851 175.437 122.356 176.006C119.725 179.045 116.317 180.758 112.233 181.099C112.192 181.103 112.149 181.104 112.104 181.104V181.105ZM115.048 173.388C114.416 173.388 113.483 173.528 112.884 174.251C112.175 175.106 112.205 176.499 112.915 177.887C115.267 177.524 117.309 176.555 119.012 174.994C118.995 174.979 118.978 174.966 118.961 174.951C117.857 174.036 116.525 173.469 115.307 173.395C115.23 173.391 115.142 173.388 115.048 173.388Z" fill="#252728"/>
<path d="M172.51 56.574C170.861 57.3306 168.337 58.8652 169.434 61.0122C169.724 61.5598 168.935 62.0854 168.541 61.6205C166.144 59.0748 168.611 55.5291 170.819 53.7552C172.788 52.2261 174.786 55.5518 172.51 56.574V56.574Z" fill="#39005E"/>
<g opacity="0.2">
<path opacity="0.2" d="M96.0428 133.809C94.2279 133.996 92.5059 134.097 90.8735 134.12L94.8728 131.261C94.8728 131.261 94.8728 132.222 96.0428 133.809V133.809Z" fill="#39005E"/>
</g>
<g opacity="0.2">
<path opacity="0.2" d="M126.222 160.841C126.163 161.724 126.058 162.666 125.892 163.662C125.872 163.817 125.841 163.984 125.814 164.144C125.227 167.489 124.243 170.301 122.903 172.573C122.382 173.46 121.81 174.265 121.185 174.985C118.818 177.712 115.736 179.245 112.102 179.548C107.901 179.902 102.961 178.611 97.5473 175.615C85.2855 168.831 76.9183 156.114 73.4785 146.556L77.8161 143.456C79.3824 145.323 81.1898 147.922 83.5567 151.244C90.1089 160.432 101.496 167.874 108.131 167.575C121.83 166.949 124.924 158.095 125.62 154.59C126.176 156.321 126.393 158.367 126.222 160.841V160.841Z" fill="#39005E"/>
</g>
</g>
<defs>
<clipPath id="clip0_12_1349">
<rect width="187.183" height="215" fill="white"/>
</clipPath>
</defs>
</svg>
