<svg width="29" height="29" viewBox="0 0 29 29" fill="none" xmlns="http://www.w3.org/2000/svg">
<g opacity="0.5">
<path fill-rule="evenodd" clip-rule="evenodd" d="M7.05588 22.2077C6.54113 21.557 5.91581 20.2266 4.80294 18.6117C4.17219 17.6982 2.608 15.9781 2.14219 15.1045C1.738 14.3324 1.7815 13.9862 1.87756 13.3464C2.04794 12.2081 3.21519 11.3218 4.46038 11.4415C5.40106 11.5303 6.19856 12.152 6.91631 12.7392C7.3495 13.0926 7.88238 13.7796 8.20319 14.1675C8.49863 14.5227 8.57113 14.6695 8.8865 15.09C9.30338 15.6465 9.43388 15.922 9.27438 15.3093C9.14569 14.4103 8.93544 12.8751 8.63094 11.5176C8.39894 10.4881 8.34275 10.3268 8.12163 9.53652C7.88781 8.69552 7.76819 8.10646 7.54888 7.21471C7.39663 6.58396 7.12294 5.29527 7.04863 4.57027C6.94531 3.57883 6.89094 1.96208 7.52713 1.21896C8.02556 0.637145 9.16925 0.461333 9.87794 0.820208C10.8059 1.28965 11.3334 2.63815 11.5744 3.17646C12.0076 4.14433 12.2759 5.26265 12.5097 6.73077C12.8069 8.59946 13.3543 11.1931 13.3724 11.7387C13.4159 11.0699 13.2492 9.66158 13.3652 9.01996C13.4703 8.43814 13.9597 7.76208 14.5723 7.57902C15.0907 7.42496 15.6979 7.36877 16.2326 7.47933C16.7999 7.59533 17.398 8.00133 17.6209 8.38377C18.2771 9.51477 18.2898 11.8257 18.3169 11.7025C18.4728 11.021 18.4456 9.47489 18.8317 8.83146C19.0854 8.40733 19.7325 8.0249 20.0769 7.96327C20.6098 7.86902 21.2641 7.84002 21.8241 7.94877C22.2754 8.03758 22.8862 8.57408 23.0512 8.83146C23.4463 9.45496 23.6711 11.2185 23.7381 11.8366C23.7653 12.0921 23.8723 11.1261 24.2692 10.5026C25.0051 9.3444 27.6096 9.11965 27.7093 11.6608C27.7546 12.8461 27.7456 12.7918 27.7456 13.5893C27.7456 14.5263 27.7238 15.09 27.6731 15.7679C27.6169 16.4929 27.461 18.1314 27.2344 18.9253C27.0786 19.4708 26.562 20.6979 26.0527 21.4338C26.0527 21.4338 24.1061 23.6994 23.894 24.7198C23.6801 25.7385 23.7508 25.7457 23.7091 26.4689C23.6674 27.1903 23.9284 28.14 23.9284 28.14C23.9284 28.14 22.4748 28.3285 21.6918 28.2035C20.9831 28.0893 20.1059 26.6791 19.8793 26.2478C19.5676 25.6533 18.9024 25.7675 18.6432 26.2061C18.2354 26.9003 17.3581 28.1455 16.7383 28.2234C15.5275 28.3756 13.0154 28.2796 11.0488 28.2596C11.0488 28.2596 11.3841 26.4272 10.6374 25.7983C10.0846 25.3288 9.133 24.3773 8.56388 23.877L7.05588 22.2077Z" fill="white"/>
<path fill-rule="evenodd" clip-rule="evenodd" d="M7.05588 22.2077C6.54113 21.557 5.91581 20.2266 4.80294 18.6117C4.17219 17.6982 2.608 15.9781 2.14219 15.1045C1.738 14.3324 1.7815 13.9862 1.87756 13.3464C2.04794 12.2081 3.21519 11.3218 4.46038 11.4415C5.40106 11.5303 6.19856 12.152 6.91631 12.7392C7.3495 13.0926 7.88238 13.7796 8.20319 14.1675C8.49863 14.5227 8.57113 14.6695 8.8865 15.09C9.30338 15.6465 9.43388 15.922 9.27438 15.3093C9.14569 14.4103 8.93544 12.8751 8.63094 11.5176C8.39894 10.4881 8.34275 10.3268 8.12163 9.53652C7.88781 8.69552 7.76819 8.10646 7.54888 7.21471C7.39663 6.58396 7.12294 5.29527 7.04863 4.57027C6.94531 3.57883 6.89094 1.96208 7.52713 1.21896C8.02556 0.637145 9.16925 0.461333 9.87794 0.820208C10.8059 1.28965 11.3334 2.63815 11.5744 3.17646C12.0076 4.14433 12.2759 5.26265 12.5097 6.73077C12.8069 8.59946 13.3543 11.1931 13.3724 11.7387C13.4159 11.0699 13.2492 9.66158 13.3652 9.01996C13.4703 8.43814 13.9597 7.76208 14.5723 7.57902C15.0907 7.42496 15.6979 7.36877 16.2326 7.47933C16.7999 7.59533 17.398 8.00133 17.6209 8.38377C18.2771 9.51477 18.2898 11.8257 18.3169 11.7025C18.4728 11.021 18.4456 9.47489 18.8317 8.83146C19.0854 8.40733 19.7325 8.0249 20.0769 7.96327C20.6098 7.86902 21.2641 7.84002 21.8241 7.94877C22.2754 8.03758 22.8862 8.57408 23.0512 8.83146C23.4463 9.45496 23.6711 11.2185 23.7381 11.8366C23.7653 12.0921 23.8723 11.1261 24.2692 10.5026C25.0051 9.3444 27.6096 9.11965 27.7093 11.6608C27.7546 12.8461 27.7456 12.7918 27.7456 13.5893C27.7456 14.5263 27.7238 15.09 27.6731 15.7679C27.6169 16.4929 27.461 18.1314 27.2344 18.9253C27.0786 19.4708 26.562 20.6979 26.0527 21.4338C26.0527 21.4338 24.1061 23.6994 23.894 24.7198C23.6801 25.7385 23.7508 25.7457 23.7091 26.4689C23.6674 27.1903 23.9284 28.14 23.9284 28.14C23.9284 28.14 22.4748 28.3285 21.6918 28.2035C20.9831 28.0893 20.1059 26.6791 19.8793 26.2478C19.5676 25.6533 18.9024 25.7675 18.6432 26.2061C18.2354 26.9003 17.3581 28.1455 16.7383 28.2234C15.5275 28.3756 13.0154 28.2796 11.0488 28.2596C11.0488 28.2596 11.3841 26.4272 10.6374 25.7983C10.0846 25.3288 9.133 24.3773 8.56388 23.877L7.05588 22.2077V22.2077Z" stroke="black" stroke-width="0.75" stroke-linecap="round" stroke-linejoin="round"/>
<path d="M21.9817 22.8502V16.5808" stroke="black" stroke-width="0.75" stroke-linecap="round"/>
<path d="M18.3283 22.8714L18.2993 16.5766" stroke="black" stroke-width="0.75" stroke-linecap="round"/>
<path d="M14.7104 16.6339L14.7485 22.8435" stroke="black" stroke-width="0.75" stroke-linecap="round"/>
</g>
</svg>
